<?xml version="1.0" encoding="iso-8859-1"?>
<!-- Generator: Adobe Illustrator 19.0.0, SVG Export Plug-In . SVG Version: 6.00 Build 0)  -->
<svg version="1.1" id="Capa_1" xmlns="http://www.w3.org/2000/svg" xmlns:xlink="http://www.w3.org/1999/xlink" x="0px" y="0px"
	 viewBox="0 0 512 512" style="enable-background:new 0 0 512 512;" xml:space="preserve">
<g>
	<g>
		<path d="M432,0.033H80c-44.183,0-80,35.817-80,80v256c0,44.183,35.817,80,80,80h313.44l91.36,91.36
			c6.31,6.186,16.441,6.084,22.626-0.226c2.916-2.974,4.557-6.969,4.574-11.134v-416C512,35.85,476.183,0.033,432,0.033z
			 M480,457.473l-68.64-68.64c-2.993-3.054-7.084-4.782-11.36-4.8H80c-26.51,0-48-21.49-48-48v-256c0-26.51,21.49-48,48-48h352
			c26.51,0,48,21.49,48,48V457.473z"/>
	</g>
</g>
<g>
</g>
<g>
</g>
<g>
</g>
<g>
</g>
<g>
</g>
<g>
</g>
<g>
</g>
<g>
</g>
<g>
</g>
<g>
</g>
<g>
</g>
<g>
</g>
<g>
</g>
<g>
</g>
<g>
</g>
</svg>
